<svg width="1797" height="542" viewBox="0 0 1797 542" fill="none" xmlns="http://www.w3.org/2000/svg">
<path d="M6.22424 117.788C10.0386 117.788 34.1324 110.83 90.7345 96.1763C126.715 86.8614 178.963 80.2576 216.752 72.5426C277.203 60.201 301.387 49.4359 305.528 46.8866C314.302 41.4838 322.453 38.587 352.709 26.1568C366.462 19.4577 374.224 16.1992 380.262 14.6179C384.403 13.0365 390.728 9.87386 397.245 6.61536" stroke="black" stroke-width="12" stroke-linecap="round"/>
<path d="M217.069 71.7855C217.069 73.0505 217.069 74.3156 216.436 102.482C215.804 130.649 214.539 185.68 212.622 223.517C210.705 261.354 208.175 280.33 206.239 299.593C202.402 337.774 200.469 361.812 197.604 375.478C188.102 420.795 183.87 444.213 181.934 453.193C179.946 462.415 166.044 479.29 155.128 491.203C142.081 505.442 127.709 516.437 116.793 521.89C106.726 526.92 74.2312 526.059 53.2234 521.612C50.3482 519.696 46.553 517.166 43.6491 514.913C40.7452 512.661 38.8476 510.764 36.8925 504.975" stroke="black" stroke-width="12" stroke-linecap="round"/>
<path d="M230.486 418.72C238.076 420.637 272.463 416.842 304.502 407.574C323.649 402.036 342.195 373.523 350.591 348.203C352.322 342.981 351.242 337.679 350.61 336.021C346.95 326.428 334.682 370.035 327.637 394.952C319.513 423.694 310.377 447.414 305.278 459.835C299.507 473.895 297.573 484.504 297.889 489.286C298.45 497.768 304.588 504.937 309.687 512.613C312.932 517.499 319.271 520.29 324.369 523.481C328.989 526.373 344.093 526.059 365.781 524.794C382.808 523.801 402.861 511.434 427.731 497.097C450.127 484.186 465.539 467.349 482.407 452.063C520.555 417.491 541.577 409.827 548.334 401.498C558.057 389.514 548.056 358.112 542.306 347.829C540.98 345.457 537.859 344.005 534.974 342.711C517.069 334.681 493.122 370.111 477.174 387.027C458.177 407.177 443.286 444.175 439.74 460.496C433.557 488.954 445.777 503.633 454.393 515.479C457.597 519.883 466.824 521.574 484.63 523.491C512.405 526.481 533.93 521.612 547.912 509.24C558.186 500.149 572.016 482.319 585.203 464.349C611.144 429 622.139 405.974 623.098 395.805C624.764 378.122 622.791 365.07 621.516 364.725C619.894 364.286 620.242 371.338 619.916 392.921C619.59 414.504 619.59 452.456 619.274 473.272C618.849 501.208 614.491 510.035 611.932 526.634C611.334 530.513 610.658 533.036 609.699 533.391C607.161 534.33 606.173 519.14 607.121 497.155C608.104 474.379 615.085 452.686 620.826 430.71C631.562 389.612 628.522 377.242 633.621 369.229C638.924 360.895 654.015 363.786 671.266 362.502C684.704 361.501 694.957 359.301 703.535 363.412C721.422 371.986 730.111 390.544 732.027 407.402C736.914 450.376 723.134 473.502 717.364 488.96C714.555 496.488 713.511 509.364 714.46 523.088C714.845 528.657 717.307 531.12 723.028 532.423C751.176 530.564 762.657 521.612 786.579 512.364C791.447 509.479 792.712 506.317 794.016 503.058" stroke="black" stroke-width="12" stroke-linecap="round"/>
<path d="M353.159 305.631C352.527 305.631 351.894 305.631 351.568 306.896C351.242 308.161 351.242 310.691 352.191 312.311C353.14 313.931 355.038 314.563 356.964 314.573C360.838 314.592 364.641 312.033 367.2 309.168C367.861 307.567 367.228 305.669 365.954 304.376C364.679 303.082 362.781 302.449 358.909 301.798" stroke="black" stroke-width="12" stroke-linecap="round"/>
<path d="M937.773 524.143C942.853 523.51 959.394 514.635 988.731 492.65C1002.6 482.258 1021.08 460.659 1044.46 439.163C1067.85 417.666 1094.41 395.527 1123.28 366.412C1152.14 337.296 1182.51 301.874 1204.16 274.771C1225.81 247.668 1237.82 229.957 1246.55 215.773C1261.18 191.972 1270.6 165.228 1278.58 139.371C1284.96 118.717 1287.89 105.712 1291.72 95.1412C1294.74 86.8259 1296.21 76.309 1297.8 62.2591C1298.92 52.3689 1299.39 120.931 1300.36 129.576C1300.61 131.827 1301.31 134.349 1301.63 167.595C1301.96 200.841 1301.96 264.727 1302.28 299.219C1302.62 336.885 1303.88 352.151 1303.56 372.574C1303.36 385.44 1301.96 393.764 1299.75 409.002C1291.99 462.402 1279.65 480.555 1271.32 496.944C1265.97 507.48 1252.24 517.051 1238.12 521.9C1233.9 523.352 1226.71 522.226 1222.17 521.593C1215.53 520.667 1201.77 489.928 1182.3 441.741C1164.99 398.912 1162.07 386.174 1154.71 376.59C1147.26 366.884 1142.23 359.32 1141.91 355.18C1141.73 352.923 1143.48 350.407 1145.4 348.471C1157.42 336.324 1191.29 331.852 1209.88 331.498C1241.58 330.893 1256.53 337.564 1265.83 339.807C1280.54 343.356 1307.59 349.678 1320.77 355.764C1330.7 360.351 1338.34 367.581 1344.43 374.29C1351.16 381.719 1351.8 401.354 1347.98 432.349C1346.3 445.984 1341.6 456.979 1336.8 468.518C1332.41 479.064 1329.45 490.235 1328.48 494.414C1327.18 500.01 1335.79 461.119 1341.53 423.455C1344.8 402.017 1351.76 389.394 1358.46 379.177C1365.63 368.242 1389.36 368.884 1403.51 368.875C1420.85 368.863 1418.88 400.779 1420.47 416.066C1425.18 461.249 1416.97 483.124 1421.41 496.953C1425.43 509.439 1446.29 506.892 1461.63 508.483C1471.13 509.468 1487.77 506.911 1508.18 502.454C1524.19 498.96 1537.64 488.414 1551.99 478.217C1565.11 468.894 1576 455.848 1588.42 438.032C1595.73 427.553 1602.74 412.625 1613.29 389.317C1623.84 366.009 1637.13 334.383 1646.81 312.397C1656.5 290.412 1662.2 279.026 1669.24 260.194C1676.28 241.362 1684.51 215.428 1688.74 194.161C1692.98 172.895 1692.98 157.082 1690.45 148.619C1687.06 137.269 1666.89 138.872 1649.65 139.189C1641.21 139.343 1632.98 148.379 1621.82 163.675C1611.64 177.618 1610.56 193.117 1611.82 210.291C1613.76 236.525 1618.23 257.654 1619.17 269.126C1620.15 280.906 1625.24 293.421 1627.16 323.256C1628.63 346.095 1627.81 384.717 1626.86 412.817C1625.91 440.917 1624.01 457.362 1623.04 475.323C1622.06 493.283 1622.06 512.259 1621.43 518.555C1621.23 520.555 1618.86 504.4 1622.66 483.747C1634.4 420.05 1639.92 409.175 1645.98 397.377C1652.97 383.765 1664.84 378.468 1669.62 378.152C1673.87 377.871 1679.52 376.551 1685.91 377.5C1695.65 378.948 1695.51 398.211 1697.13 409.731C1700.68 434.987 1697.47 469.783 1696.5 478.428C1695.1 490.892 1693.63 507.467 1691.39 516.763C1690.86 518.966 1691.06 521.536 1692.01 523.788C1698.08 538.189 1733.12 537.56 1759.65 531.838C1774.1 524.162 1785.56 511.454 1790.09 501.17C1790.1 499.244 1789.47 497.346 1786.9 495.391" stroke="black" stroke-width="12" stroke-linecap="round"/>
</svg>
